<svg id="Layer_1" data-name="Layer 1" xmlns="http://www.w3.org/2000/svg" viewBox="0 0 1555.85 406.52"><defs><style>.cls-1{fill:none;}.cls-2{fill:#00d0a6;}.cls-3{fill:#007ee1;}.cls-4{fill:#fcb813;}</style></defs><path class="cls-1" d="M733.93,119.86a68.26,68.26,0,0,0,5.49,4.63C737.64,122.9,735.8,121.36,733.93,119.86Z" transform="translate(-36.63 -29.63)"/><path class="cls-2" d="M1363.9,178.2a55.54,55.54,0,0,1,16.81,2.27,32.45,32.45,0,0,1,11.72,6.36,25.26,25.26,0,0,1,6.86,9.78,33.63,33.63,0,0,1,2.25,12.46A34.42,34.42,0,0,1,1399.2,222a26.76,26.76,0,0,1-7,10.08,32.65,32.65,0,0,1-11.75,6.57A52.57,52.57,0,0,1,1363.9,241h-13.46V275h-18V178.2Zm0,48.69a27.35,27.35,0,0,0,8.64-1.24,16.4,16.4,0,0,0,6.13-3.55,14.45,14.45,0,0,0,3.65-5.63,21.63,21.63,0,0,0,1.2-7.4,19.6,19.6,0,0,0-1.2-7,13.92,13.92,0,0,0-3.62-5.36,16.16,16.16,0,0,0-6.09-3.38,28.92,28.92,0,0,0-8.71-1.17h-13.46v34.76Z" transform="translate(-36.63 -29.63)"/><path class="cls-2" d="M1491,275h-16.28a7.13,7.13,0,0,1-6.69-3.62l-20.36-31a7.1,7.1,0,0,0-2.52-2.47,8.77,8.77,0,0,0-4-.74h-7.7V275h-18V178.2h29.54a61.49,61.49,0,0,1,16.91,2,32.48,32.48,0,0,1,11.59,5.72,22.52,22.52,0,0,1,6.66,8.81,30.47,30.47,0,0,1,.7,20.53,26.41,26.41,0,0,1-4.15,7.9,27.78,27.78,0,0,1-6.7,6.23,33.48,33.48,0,0,1-9.07,4.22A17.34,17.34,0,0,1,1464,236a16.36,16.36,0,0,1,2.68,3.25Zm-46.35-50.77a27.88,27.88,0,0,0,8.88-1.27,17.24,17.24,0,0,0,6.23-3.52,14.13,14.13,0,0,0,3.64-5.32,18.26,18.26,0,0,0,1.21-6.76q0-7.38-4.85-11.32t-14.84-4h-11.52v32.14Z" transform="translate(-36.63 -29.63)"/><path class="cls-2" d="M1592.48,226.62a54,54,0,0,1-3.52,19.72,46.34,46.34,0,0,1-9.94,15.71,45.16,45.16,0,0,1-15.47,10.34,55.95,55.95,0,0,1-40.12,0,45.29,45.29,0,0,1-15.5-10.34,46.53,46.53,0,0,1-10-15.71,56.57,56.57,0,0,1,0-39.45,46.49,46.49,0,0,1,10-15.7,45.46,45.46,0,0,1,15.5-10.35,52.16,52.16,0,0,1,20-3.72,54.26,54.26,0,0,1,13.86,1.71,49,49,0,0,1,11.92,4.82,44.35,44.35,0,0,1,9.75,7.57,46.09,46.09,0,0,1,7.33,9.95,48.66,48.66,0,0,1,4.59,11.92A57.25,57.25,0,0,1,1592.48,226.62Zm-18.42,0a44.4,44.4,0,0,0-2.14-14.3,30.61,30.61,0,0,0-6.1-10.75,26.06,26.06,0,0,0-9.61-6.77,35.93,35.93,0,0,0-25.51,0,26.46,26.46,0,0,0-9.65,6.77,30.19,30.19,0,0,0-6.12,10.75,48.63,48.63,0,0,0,0,28.6,29.76,29.76,0,0,0,6.12,10.71,26.48,26.48,0,0,0,9.65,6.73,35.79,35.79,0,0,0,25.51,0,26.08,26.08,0,0,0,9.61-6.73,30.17,30.17,0,0,0,6.1-10.71A44.44,44.44,0,0,0,1574.06,226.62Z" transform="translate(-36.63 -29.63)"/><path class="cls-2" d="M289.91,75.86a40.29,40.29,0,0,1-4.16-36.63,200,200,0,0,0-49.27-6.13C126.11,33.1,36.63,122.58,36.63,233c0,.41,0,.81,0,1.22a62.26,62.26,0,0,0,67.53-42.87A138.23,138.23,0,0,1,278,102.73a63,63,0,0,0,47.13-1.82A157.79,157.79,0,0,0,306.74,90.2,40.24,40.24,0,0,1,289.91,75.86Z" transform="translate(-36.63 -29.63)"/><path class="cls-2" d="M1257.94,211H1058.32a22.31,22.31,0,0,0,0,44.61h199.62a22.31,22.31,0,0,0,0-44.61Z" transform="translate(-36.63 -29.63)"/><path class="cls-2" d="M1243.65,310A62.45,62.45,0,0,0,1163,322.26c-1.35,1.57-2.77,3.08-4.19,4.6-1,1.09-2.09,2.17-3.16,3.24-.83.83-1.67,1.66-2.53,2.47-1.11,1.05-2.24,2.07-3.39,3.09-.85.75-1.7,1.49-2.57,2.23-1.24,1-2.51,2.06-3.79,3.07-.81.63-1.61,1.26-2.43,1.87-1.84,1.38-3.7,2.74-5.62,4a137.93,137.93,0,0,1-135.74,10.21A62.55,62.55,0,0,0,953,352.75l.09.08c1.39,1.22,2.79,2.42,4.22,3.59h0q5.82,4.79,12.08,9l.63.42c1.17.78,2.35,1.54,3.54,2.29l1.07.66c1.06.66,2.13,1.31,3.21,1.94l1.25.72c1.06.61,2.13,1.22,3.22,1.8l1.19.65c1.18.63,2.37,1.24,3.56,1.83l.57.3c.47.21.94.46,1.4.69.73.37,1.45.76,2.17,1.18l.1.06c.68.4,1.34.81,2,1.25l.24.16c.61.42,1.21.85,1.8,1.3l.39.31c.54.41,1.06.84,1.58,1.29l.56.51c.45.41.9.82,1.34,1.25.25.25.49.52.74.77s.73.76,1.08,1.15.64.77,1,1.16.52.61.76.93c.55.7,1.07,1.43,1.58,2.18a.43.43,0,0,0,0,.07,39.76,39.76,0,0,1,6.68,20.19,40.54,40.54,0,0,1-2.41,15.86c2.27.59,4.56,1.13,6.85,1.64v0c1.41.31,2.83.59,4.25.88l1.32.27c1.72.34,3.44.64,5.17.92l1,.18c1.82.3,3.66.56,5.5.8l.77.11q2.82.36,5.67.64l.68.08c1.87.18,3.74.32,5.62.45l.82.06c1.75.11,3.52.19,5.29.26l1.22.05c1.52.05,3,.06,4.58.08.61,0,1.22,0,1.84,0h.18c2.28,0,4.56,0,6.86-.12h.17q3.35-.12,6.68-.36l.69,0a198.31,198.31,0,0,0,49.26-9.9l.81-.26c1.35-.46,2.67-1,4-1.44.93-.34,1.86-.66,2.78-1l1.24-.5a199.74,199.74,0,0,0,72-48.39c.64-.66,1.29-1.31,1.92-2,.16-.18.31-.36.48-.54a200.22,200.22,0,0,0,34.55-51.81h0Q1242.29,313.24,1243.65,310Z" transform="translate(-36.63 -29.63)"/><path class="cls-3" d="M355.27,72.23a199,199,0,0,0-69.52-33,40.35,40.35,0,0,0,21,51,157.79,157.79,0,0,1,18.42,10.71,160.59,160.59,0,0,1,0,266.3,40.25,40.25,0,0,0-17.64,30.14,178.65,178.65,0,0,0,27.68-15.27,22.43,22.43,0,0,1,29.62,4.08,199.79,199.79,0,0,0-9.52-313.93Z" transform="translate(-36.63 -29.63)"/><path class="cls-3" d="M779.11,238.31A117.39,117.39,0,0,0,767,230.59a219,219,0,0,0-49.91-19.46,545.21,545.21,0,0,0-57.75-11.72c-29.86-4.73-54.29-11.26-72.6-19.43-17.42-7.76-25.89-20.58-25.89-39.17,0-15.74,7.91-27.69,24.19-36.52,16.77-9.1,38-13.71,63.2-13.71,24.42,0,46.23,5.17,64.84,15.37a143.67,143.67,0,0,1,20.45,13.57v0c.14.14.28.25.42.38,1.87,1.5,3.71,3,5.49,4.63,26.65,20,46.55-.21,46.55-.21l21.59-22.45-1.62-2.4c-15.09-22.26-36.12-39.66-62.49-51.73s-57.74-18.07-93.56-18.07c-28.76,0-55.51,4.65-79.48,13.83S526.85,66,512.64,83.06a91.3,91.3,0,0,0-19.29,39.65A106.46,106.46,0,0,0,491,145.25c0,27.21,8,49.64,23.83,67a96.89,96.89,0,0,0,16.54,14.43c26.2,18.16,61.78,30.76,105.79,37.47,35,5.12,62.55,11.76,81.8,19.74,18.3,7.6,27.19,19.58,27.19,36.64,0,12-4.4,21.73-13.49,29.78-9.35,8.29-21.39,14.57-35.77,18.64A167.61,167.61,0,0,1,651,375.2c-29.53,0-54.77-6-75-17.82a208.47,208.47,0,0,1-37.11-28.06c-16.47-12.91-30.48-9.44-39.35-4.21a40.18,40.18,0,0,0-10.15,8.45l-18.78,23.61,1.82,2.23c2.47,3,5,5.94,7.58,8.78,20.4,22.5,43.84,39.29,69.81,49.94,29.14,12,62.25,18,98.43,18,33.95,0,63.81-5.23,88.72-15.53,25.11-10.38,44.76-25.26,58.39-44.21a106.2,106.2,0,0,0,11.8-21.07A117.44,117.44,0,0,0,816,309.43c0-18.78-4.51-34.77-13.4-47.52A99.17,99.17,0,0,0,779.11,238.31Z" transform="translate(-36.63 -29.63)"/><path class="cls-4" d="M364.79,386.16a22.43,22.43,0,0,0-29.62-4.08c-1.09.73-2.19,1.41-3.29,2.11-1.76,1.13-3.53,2.24-5.32,3.3l-1.53.89q-2.65,1.55-5.35,3l-1.62.85c-1.79.93-3.59,1.84-5.41,2.71-.55.27-1.12.53-1.68.79-2,.94-4,1.86-6.09,2.73a179.09,179.09,0,0,1-134,2.05c-.76-.29-1.5-.59-2.25-.89q-2.28-.92-4.53-1.89l-1.85-.82c-1.49-.66-3-1.34-4.43-2l-1.86-.91c-1.43-.71-2.84-1.43-4.25-2.17l-1.92-1q-2-1.11-4-2.26l-2-1.19c-1.27-.76-2.52-1.52-3.77-2.31l-2.16-1.39c-1.16-.76-2.32-1.53-3.47-2.32L132,379.65c-1.06-.76-2.13-1.53-3.17-2.31-.82-.6-1.63-1.22-2.44-1.85-1-.74-1.94-1.5-2.89-2.26l-2.56-2.11c-.87-.73-1.74-1.47-2.6-2.22s-1.79-1.57-2.67-2.37-1.57-1.43-2.34-2.15c-.92-.87-1.83-1.74-2.73-2.63l-2.12-2.1c-.93-.95-1.85-1.9-2.75-2.87-.65-.68-1.3-1.38-1.94-2.07-.92-1-1.83-2-2.73-3.07l-1.8-2.08c-.89-1.07-1.78-2.14-2.66-3.23l-1.69-2.12c-.86-1.11-1.7-2.22-2.54-3.35l-1.64-2.22c-.8-1.12-1.59-2.24-2.37-3.37-.58-.85-1.17-1.7-1.74-2.56s-1.2-1.83-1.78-2.75l-1.14-1.8c-.64-1-1.27-2.08-1.89-3.14-.35-.57-.69-1.15-1-1.73-.62-1.07-1.22-2.14-1.81-3.22-.33-.6-.66-1.2-1-1.8-.56-1-1.11-2.09-1.64-3.14s-1.06-2.07-1.57-3.12c-.64-1.32-1.26-2.65-1.87-4-.48-1.06-1-2.12-1.43-3.19-.61-1.39-1.18-2.8-1.75-4.21-.43-1.06-.86-2.12-1.26-3.19s-.91-2.42-1.34-3.64c-.22-.6-.43-1.21-.64-1.81q-.64-1.9-1.26-3.81c-.18-.57-.36-1.13-.53-1.7-.41-1.34-.81-2.68-1.19-4l-.42-1.53c-.39-1.42-.76-2.85-1.11-4.28-.28-1.15-.58-2.3-.84-3.46,0-.11-.06-.22-.09-.33-.13-.56-.25-1.1-.37-1.66s-.21-1-.31-1.46c-.2-1-.4-1.94-.58-2.91-.12-.61-.23-1.23-.34-1.84-.17-.94-.33-1.89-.49-2.83l-.24-1.55c-.18-1.14-.34-2.28-.49-3.43s-.29-2.1-.41-3.15a22.41,22.41,0,0,0-21.16-19.86c0,1.06,0,2.11.06,3.16h0l0,1c0,1,.07,2.1.11,3.14,0,.74.07,1.47.1,2.21.06,1.1.13,2.19.21,3.29,0,.69.09,1.37.15,2.06.09,1.11.19,2.22.29,3.33.07.68.13,1.35.2,2,0,.45.09.91.14,1.36s.1.7.14,1.05c.09.7.15,1.39.24,2.09.12.89.28,1.77.41,2.66.23,1.61.47,3.22.74,4.81.23,1.38.49,2.74.75,4.1.29,1.56.59,3.12.93,4.67.29,1.38.62,2.76.94,4.13s.72,3,1.11,4.49.76,2.78,1.16,4.17.82,2.87,1.26,4.29.91,2.81,1.37,4.21.93,2.75,1.42,4.11,1,2.81,1.58,4.21,1,2.64,1.55,3.94,1.18,2.81,1.79,4.2,1.11,2.53,1.69,3.79,1.32,2.77,2,4.15c.38.78.74,1.57,1.13,2.35.31.61.64,1.21,1,1.82.17.33.32.66.49,1l.67,1.22c.4.75.8,1.49,1.21,2.23.5.9,1,1.8,1.51,2.7s.87,1.49,1.3,2.23,1,1.76,1.58,2.64l1.35,2.17,1.68,2.64c.2.3.39.62.59.92l.81,1.18,1,1.45.76,1.08c.42.61.84,1.21,1.27,1.81.62.88,1.24,1.75,1.88,2.62l1.3,1.75c.64.85,1.28,1.7,1.93,2.54.46.6.93,1.19,1.4,1.78l1.93,2.4c.2.25.4.51.61.76s.32.36.47.54c.52.63,1,1.26,1.56,1.89.73.85,1.5,1.66,2.24,2.49,1.06,1.2,2.11,2.4,3.19,3.58s2.24,2.35,3.37,3.52,2.27,2.34,3.44,3.49,2.3,2.2,3.46,3.28,2.43,2.28,3.67,3.39,2.36,2,3.55,3.05,2.59,2.2,3.91,3.26,2.42,1.91,3.64,2.85,2.72,2.08,4.11,3.1c1.23.9,2.49,1.77,3.75,2.64,1.42,1,2.84,2,4.28,2.92,1.28.84,2.58,1.65,3.88,2.46,1.47.92,2.94,1.83,4.43,2.71,1.33.78,2.68,1.53,4,2.28,1,.57,2,1.18,3.06,1.74l2.19,1.13c.21.11.4.23.61.33l.9.45c.92.47,1.85.93,2.78,1.38.72.36,1.44.71,2.17,1.05.92.44,1.84.86,2.77,1.29l2.26,1c.91.4,1.83.8,2.75,1.18s1.57.67,2.36,1l2.71,1.08,2.48.95,2.65,1,2.61.92,2.59.86c.91.3,1.82.6,2.74.88l2.51.77,2.9.84c.35.1.7.21,1.06.3l1.21.32,1.84.5c.54.14,1.09.26,1.64.39.89.23,1.78.44,2.68.65,1.13.27,2.27.52,3.41.77l2.66.55c1.16.24,2.33.46,3.5.68l2.63.46c1.19.2,2.39.39,3.58.57l2.64.38c1.2.16,2.41.32,3.62.46.89.11,1.79.21,2.69.3,1.2.13,2.4.24,3.6.34.93.08,1.85.16,2.78.22,1.18.09,2.36.16,3.55.23l2.93.14c1.13.05,2.27.08,3.41.11l1.58,0h4l2.67,0,2.2-.05c.95,0,1.89-.06,2.84-.1l2-.09c1,0,2-.11,3-.18l1.9-.13,3-.26,1.82-.17c1-.1,2-.22,3-.33l1.8-.22c1-.12,2-.26,3-.4l1.81-.26c1-.14,1.95-.3,2.93-.46l1.83-.31,2.84-.52,1.89-.37c.92-.18,1.83-.37,2.74-.57l2-.43,2.64-.61,2-.49,2.52-.66,2.1-.56q1.2-.33,2.4-.69l2.18-.64,2.27-.7,2.25-.72,2.17-.74,2.3-.79,2.08-.76,2.35-.88.65-.24.65-.26c.76-.3,1.53-.59,2.29-.9s1.5-.65,2.26-1c1.16-.48,2.32-1,3.46-1.48s2.52-1.14,3.77-1.72,2.23-1.05,3.34-1.59,2.49-1.24,3.73-1.88l3.22-1.69c1.23-.67,2.45-1.35,3.67-2,1.05-.59,2.1-1.19,3.13-1.8,1.21-.72,2.4-1.45,3.59-2.19,1-.63,2-1.26,3.05-1.91,1.17-.76,2.33-1.53,3.49-2.32,1-.67,2-1.35,3-2s2.25-1.6,3.37-2.42,2-1.44,2.93-2.18,2.16-1.67,3.23-2.52c.57-.45,1.16-.88,1.72-1.35l0,0C363.15,387.48,364,386.84,364.79,386.16Z" transform="translate(-36.63 -29.63)"/><path class="cls-3" d="M921.56,105.34A22.19,22.19,0,0,1,910.9,99a199.93,199.93,0,0,0,97.69,327.32,40.57,40.57,0,0,0,2.41-15.86,39.76,39.76,0,0,0-6.68-20.19l-.05-.07c-.5-.75-1-1.48-1.57-2.18-.24-.32-.5-.62-.76-.93s-.63-.78-1-1.16-.72-.77-1.08-1.15-.49-.52-.74-.77c-.44-.43-.89-.84-1.34-1.25l-.56-.51c-.51-.45-1-.88-1.58-1.29l-.39-.31c-.59-.45-1.19-.88-1.8-1.3l-.24-.16c-.66-.44-1.32-.85-2-1.25l-.1-.06c-.71-.42-1.44-.81-2.17-1.18-.46-.23-.93-.48-1.4-.69l-.57-.3c-1.19-.59-2.38-1.2-3.56-1.83l-1.19-.65c-1.08-.58-2.16-1.19-3.22-1.8-.42-.23-.83-.47-1.24-.72-1.09-.63-2.16-1.28-3.22-1.94l-1.08-.66c-1.18-.75-2.36-1.51-3.53-2.29l-.63-.43q-6.26-4.2-12.08-9h0c-1.43-1.17-2.83-2.37-4.22-3.59l-.09-.08a159.66,159.66,0,0,1,16.32-252.19,40,40,0,0,0,17.45-29.27,177.53,177.53,0,0,0-44.8,29.12A22.29,22.29,0,0,1,921.56,105.34Z" transform="translate(-36.63 -29.63)"/><path class="cls-4" d="M1179.57,73.33a199.72,199.72,0,0,0-250.18,7.75l0,0c-.5.43-1,.88-1.48,1.31l-1.56,1.4c-1.38,1.23-2.76,2.47-4.11,3.74-.72.67-1.41,1.37-2.12,2.05-1.15,1.11-2.3,2.23-3.42,3.37-.88.89-1.73,1.81-2.59,2.72s-1.89,2-2.81,3c-.12.14-.25.26-.38.4h0a22.26,22.26,0,0,0,31,1.39,176.66,176.66,0,0,1,98.48-43.77h0a178.1,178.1,0,0,1,129.25,37,176.11,176.11,0,0,1,22.88,21.54,22.25,22.25,0,0,0,30.2,2.86A199.77,199.77,0,0,0,1179.57,73.33Z" transform="translate(-36.63 -29.63)"/></svg>